Moderustic-Light.ufo
<glyph name="quotesingle" format="2">
  <advance width="204"/>
  <unicode hex="0027"/>
  <outline>
    <contour>
      <point x="83" y="566" type="line"/>
      <point x="121" y="566" type="line"/>
      <point x="136" y="803" type="line"/>
      <point x="68" y="803" type="line"/>
    </contour>
  </outline>
</glyph>
<glyph name="J" format="2">
  <advance width="580"/>
  <unicode hex="004A"/>
  <anchor x="452" y="719" name="top"/>
  <anchor x="278" y="-20" name="bottom"/>
  <outline>
    <contour>
      <point x="56" y="122" type="line"/>
      <point x="119" y="25"/>
      <point x="185" y="-20"/>
      <point x="279" y="-20" type="curve" smooth="yes" name="dv01"/>
      <point x="408" y="-20"/>
      <point x="481" y="64"/>
      <point x="481" y="222" type="curve" smooth="yes"/>
      <point x="481" y="700" type="line" name="at01"/>
      <point x="421" y="700" type="line"/>
      <point x="421" y="196" type="line" smooth="yes"/>
      <point x="421" y="92"/>
      <point x="369" y="35"/>
      <point x="278" y="35" type="curve" smooth="yes" name="dv02"/>
      <point x="200.403" y="35"/>
      <point x="147.207" y="79.5162"/>
      <point x="99" y="165" type="curve"/>
    </contour>
  </outline>
</glyph>
<glyph name="L" format="2">
  <advance width="554"/>
  <unicode hex="004C"/>
  <anchor x="132" y="719" name="top"/>
  <anchor x="277" y="-20" name="bottom"/>
  <outline>
    <contour>
      <point x="98" y="0" type="line" name="ab01"/>
      <point x="484" y="0" type="line"/>
      <point x="484" y="54" type="line" name="sv01"/>
      <point x="158" y="54" type="line"/>
      <point x="158" y="700" type="line" name="at01"/>
      <point x="98" y="700" type="line"/>
    </contour>
  </outline>
</glyph>
<glyph name="Z" format="2">
  <advance width="594"/>
  <unicode hex="005A"/>
  <anchor x="307" y="719" name="top"/>
  <anchor x="297" y="-20" name="bottom"/>
  <outline>
    <contour>
      <point x="58" y="0" type="line" name="ab01"/>
      <point x="536" y="0" type="line"/>
      <point x="536" y="54" type="line" name="sv01"/>
      <point x="132" y="54" type="line"/>
      <point x="534" y="651" type="line"/>
      <point x="534" y="700" type="line" name="at01"/>
      <point x="86" y="700" type="line"/>
      <point x="86" y="646" type="line" name="sv02"/>
      <point x="460" y="646" type="line"/>
      <point x="58" y="49" type="line"/>
    </contour>
  </outline>
</glyph>
<glyph name="g" format="2">
  <advance width="634"/>
  <unicode hex="0067"/>
  <anchor x="308" y="-220" name="bottom"/>
  <anchor x="317" y="520" name="top"/>
  <outline>
    <contour>
      <point x="287" y="-20" type="curve" smooth="yes" name="dv01"/>
      <point x="407" y="-20"/>
      <point x="483" y="82"/>
      <point x="483" y="255" type="curve" smooth="yes"/>
      <point x="483" y="419"/>
      <point x="414" y="520"/>
      <point x="284" y="520" type="curve" smooth="yes" name="at01"/>
      <point x="154" y="520"/>
      <point x="70" y="420"/>
      <point x="70" y="260" type="curve" smooth="yes"/>
      <point x="70" y="94"/>
      <point x="160" y="-20"/>
    </contour>
    <contour>
      <point x="294" y="30" type="curve" smooth="yes" name="dv02"/>
      <point x="196" y="30"/>
      <point x="130" y="119"/>
      <point x="130" y="256" type="curve" smooth="yes"/>
      <point x="130" y="389"/>
      <point x="192" y="469"/>
      <point x="293" y="469" type="curve" smooth="yes" name="sv01"/>
      <point x="398" y="469"/>
      <point x="471" y="381"/>
      <point x="471" y="254" type="curve" smooth="yes"/>
      <point x="471" y="127"/>
      <point x="397" y="30"/>
    </contour>
    <contour>
      <point x="100" y="-130" type="line"/>
      <point x="140" y="-183"/>
      <point x="208" y="-220"/>
      <point x="300" y="-220" type="curve" smooth="yes" name="at01"/>
      <point x="451" y="-220"/>
      <point x="531" y="-121"/>
      <point x="531" y="52" type="curve" smooth="yes"/>
      <point x="531" y="500" type="line" name="av01"/>
      <point x="471" y="500" type="line"/>
      <point x="471" y="43" type="line" smooth="yes"/>
      <point x="471" y="-97"/>
      <point x="405" y="-169"/>
      <point x="291" y="-169" type="curve" smooth="yes" name="sv01"/>
      <point x="233" y="-169"/>
      <point x="182" y="-150"/>
      <point x="136" y="-94" type="curve"/>
    </contour>
  </outline>
</glyph>
<glyph name="y" format="2">
  <advance width="626"/>
  <unicode hex="0079"/>
  <anchor x="313" y="520" name="top"/>
  <anchor x="536" y="-59" name="bottom"/>
  <outline>
    <contour>
      <point x="463" y="233" type="line" name="iv01"/>
      <point x="463" y="124"/>
      <point x="393" y="50"/>
      <point x="289" y="50" type="curve" smooth="yes" name="sv01"/>
      <point x="191" y="50"/>
      <point x="154" y="116"/>
      <point x="154" y="234" type="curve" smooth="yes"/>
      <point x="154" y="500" type="line" name="av01"/>
      <point x="94" y="500" type="line"/>
      <point x="94" y="216" type="line" smooth="yes"/>
      <point x="94" y="83"/>
      <point x="157" y="0"/>
      <point x="269" y="0" type="curve" smooth="yes" name="ab01"/>
      <point x="381" y="0"/>
      <point x="456" y="82"/>
      <point x="469" y="160" type="curve"/>
    </contour>
    <contour>
      <point x="92" y="-130" type="line"/>
      <point x="132" y="-183"/>
      <point x="200" y="-220"/>
      <point x="292" y="-220" type="curve" smooth="yes" name="at01"/>
      <point x="443" y="-220"/>
      <point x="523" y="-121"/>
      <point x="523" y="52" type="curve" smooth="yes"/>
      <point x="523" y="500" type="line" name="av01"/>
      <point x="463" y="500" type="line"/>
      <point x="463" y="43" type="line" smooth="yes"/>
      <point x="463" y="-97"/>
      <point x="397" y="-169"/>
      <point x="283" y="-169" type="curve" smooth="yes" name="sv01"/>
      <point x="225" y="-169"/>
      <point x="174" y="-150"/>
      <point x="128" y="-94" type="curve"/>
    </contour>
  </outline>
</glyph>
<glyph name="tbar" format="2">
  <advance width="365"/>
  <unicode hex="0167"/>
  <outline>
    <contour>
      <point x="30" y="450" type="line" name="dv03"/>
      <point x="315" y="450" type="line"/>
      <point x="315" y="500" type="line"/>
      <point x="30" y="500" type="line" name="dv04"/>
    </contour>
    <contour>
      <point x="304" y="49" type="line"/>
      <point x="270" y="35"/>
      <point x="255" y="30"/>
      <point x="241" y="30" type="curve" smooth="yes" name="dv02"/>
      <point x="205" y="30"/>
      <point x="195" y="60"/>
      <point x="195" y="122" type="curve" smooth="yes"/>
      <point x="195" y="620" type="line" name="av01"/>
      <point x="135" y="620" type="line"/>
      <point x="135" y="132" type="line" smooth="yes"/>
      <point x="135" y="29"/>
      <point x="165" y="-21"/>
      <point x="228" y="-21" type="curve" smooth="yes" name="dv01"/>
      <point x="255" y="-21"/>
      <point x="279" y="-12"/>
      <point x="323" y="7" type="curve"/>
    </contour>
    <contour>
      <point x="26.04" y="231.33" type="line"/>
      <point x="306.76" y="231.33" type="line"/>
      <point x="306.76" y="275.17" type="line"/>
      <point x="26.04" y="275.17" type="line"/>
    </contour>
  </outline>
</glyph>
<glyph name="schwa" format="2">
  <advance width="613"/>
  <unicode hex="0259"/>
  <anchor x="306" y="520" name="top"/>
  <anchor x="306" y="-20" name="bottom"/>
  <outline>
    <contour>
      <point x="472" y="237" type="line" name="ah01"/>
      <point x="468" y="118"/>
      <point x="410" y="31"/>
      <point x="301" y="31" type="curve" smooth="yes" name="dv02"/>
      <point x="197" y="31"/>
      <point x="131" y="110"/>
      <point x="131" y="237" type="curve" name="dv03"/>
    </contour>
    <contour>
      <point x="73" y="286" type="line" name="dv04"/>
      <point x="71" y="271"/>
      <point x="70" y="262"/>
      <point x="70" y="246" type="curve" smooth="yes" name="sh01"/>
      <point x="70" y="86"/>
      <point x="164" y="-20"/>
      <point x="304" y="-20" type="curve" smooth="yes" name="dv01"/>
      <point x="446" y="-20"/>
      <point x="534" y="88"/>
      <point x="534" y="255" type="curve" smooth="yes" name="sh02"/>
      <point x="534" y="421"/>
      <point x="448" y="520"/>
      <point x="302" y="520" type="curve" smooth="yes" name="at01"/>
      <point x="213" y="520"/>
      <point x="142" y="483"/>
      <point x="101" y="430" type="curve" name="dv05"/>
      <point x="137" y="394" type="line" name="sh04"/>
      <point x="176" y="438"/>
      <point x="231" y="469"/>
      <point x="299" y="469" type="curve" smooth="yes" name="sv01"/>
      <point x="399" y="469"/>
      <point x="465" y="402"/>
      <point x="472" y="286" type="curve" name="sh03"/>
    </contour>
  </outline>
</glyph>
<glyph name="apostrophemod" format="2">
  <advance width="287"/>
  <unicode hex="02BC"/>
  <outline>
    <contour>
      <point x="90" y="499" type="line"/>
      <point x="141" y="499" type="line"/>
      <point x="217" y="700" type="line"/>
      <point x="141" y="700" type="line"/>
    </contour>
  </outline>
</glyph>
<glyph name="ringcomb" format="2">
  <advance width="270"/>
  <unicode hex="030A"/>
  <anchor x="135" y="723" name="top"/>
  <anchor x="135" y="500" name="_top"/>
  <outline>
    <contour>
      <point x="34.5" y="629.5" type="curve" smooth="yes"/>
      <point x="34.5" y="685.97"/>
      <point x="71.5" y="723"/>
      <point x="135.5" y="723" type="curve" smooth="yes"/>
      <point x="198.5" y="723"/>
      <point x="235.5" y="685.97"/>
      <point x="235.5" y="629.5" type="curve" smooth="yes"/>
      <point x="235.5" y="572.104"/>
      <point x="198.5" y="536"/>
      <point x="135.5" y="536" type="curve" smooth="yes"/>
      <point x="71.5" y="536"/>
      <point x="34.5" y="572.104"/>
    </contour>
    <contour>
      <point x="74.5" y="629.5" type="curve" smooth="yes"/>
      <point x="74.5" y="593.231"/>
      <point x="98.5" y="572"/>
      <point x="134.5" y="572" type="curve" smooth="yes"/>
      <point x="171.5" y="572"/>
      <point x="195.5" y="594.115"/>
      <point x="195.5" y="629.5" type="curve" smooth="yes"/>
      <point x="195.5" y="664.885"/>
      <point x="171.5" y="687"/>
      <point x="135.5" y="687" type="curve" smooth="yes"/>
      <point x="98.5" y="687"/>
      <point x="74.5" y="664.885"/>
    </contour>
  </outline>
</glyph>
<glyph name="gamma" format="2">
  <advance width="543"/>
  <unicode hex="03B3"/>
  <anchor x="272" y="520" name="topgr"/>
  <outline>
    <contour>
      <point x="241" y="-200" type="line"/>
      <point x="301" y="-200" type="line"/>
      <point x="301" y="60" type="line"/>
      <point x="296" y="-29" type="line"/>
      <point x="498" y="500" type="line"/>
      <point x="433" y="500" type="line"/>
      <point x="267" y="40" type="line"/>
      <point x="275" y="42" type="line"/>
      <point x="110" y="500" type="line"/>
      <point x="45" y="500" type="line"/>
      <point x="246" y="-29" type="line"/>
      <point x="241" y="60" type="line"/>
    </contour>
  </outline>
</glyph>
<glyph name="xi" format="2">
  <advance width="529"/>
  <unicode hex="03BE"/>
  <outline>
    <contour>
      <point x="102" y="650" type="line"/>
      <point x="102" y="700" type="line"/>
      <point x="405" y="700" type="line"/>
      <point x="405" y="650" type="line"/>
    </contour>
    <contour>
      <point x="387" y="-200" type="line"/>
      <point x="404" y="-178"/>
      <point x="413" y="-142"/>
      <point x="413" y="-113" type="curve" smooth="yes"/>
      <point x="413" y="-54"/>
      <point x="374" y="-20"/>
      <point x="279" y="-20" type="curve" smooth="yes"/>
      <point x="146" y="-20"/>
      <point x="69" y="39.6471"/>
      <point x="69" y="141.77" type="curve" smooth="yes"/>
      <point x="69" y="246.604"/>
      <point x="152" y="318"/>
      <point x="278" y="323" type="curve"/>
      <point x="168" y="338"/>
      <point x="105" y="388"/>
      <point x="105" y="467" type="curve" smooth="yes"/>
      <point x="105" y="564"/>
      <point x="238" y="662"/>
      <point x="370" y="662" type="curve"/>
      <point x="385" y="662"/>
      <point x="395" y="659"/>
      <point x="404" y="650" type="curve"/>
      <point x="256" y="626"/>
      <point x="165" y="561"/>
      <point x="165" y="477" type="curve" smooth="yes"/>
      <point x="165" y="391"/>
      <point x="247" y="347"/>
      <point x="403" y="347" type="curve"/>
      <point x="403" y="300" type="line"/>
      <point x="218" y="300"/>
      <point x="129" y="250.61"/>
      <point x="129" y="148.302" type="curve" smooth="yes"/>
      <point x="129" y="69.8066"/>
      <point x="181" y="31"/>
      <point x="287" y="31" type="curve" smooth="yes"/>
      <point x="407" y="31"/>
      <point x="473" y="-26"/>
      <point x="473" y="-110" type="curve" smooth="yes"/>
      <point x="473" y="-151"/>
      <point x="457" y="-185"/>
      <point x="447" y="-200" type="curve"/>
    </contour>
  </outline>
</glyph>
<glyph name="phi" format="2">
  <advance width="750"/>
  <unicode hex="03C6"/>
  <anchor x="375" y="520" name="topgr"/>
  <outline>
    <contour>
      <point x="343" y="-200" type="line"/>
      <point x="403" y="-200" type="line"/>
      <point x="403" y="-20" type="line"/>
      <point x="586" y="-20"/>
      <point x="671" y="66"/>
      <point x="671" y="250" type="curve" smooth="yes"/>
      <point x="671" y="421"/>
      <point x="589" y="520"/>
      <point x="448" y="520" type="curve" smooth="yes"/>
      <point x="376" y="520"/>
      <point x="343" y="490"/>
      <point x="343" y="431" type="curve" smooth="yes"/>
      <point x="343" y="31" type="line"/>
      <point x="201" y="31"/>
      <point x="139" y="94"/>
      <point x="139" y="252" type="curve" smooth="yes"/>
      <point x="139" y="362"/>
      <point x="169" y="428"/>
      <point x="240" y="464" type="curve"/>
      <point x="204" y="500" type="line"/>
      <point x="126" y="464"/>
      <point x="79" y="382"/>
      <point x="79" y="251" type="curve" smooth="yes"/>
      <point x="79" y="79"/>
      <point x="151" y="-20"/>
      <point x="343" y="-20" type="curve"/>
    </contour>
    <contour>
      <point x="403" y="31" type="curve"/>
      <point x="403" y="428" type="line" smooth="yes"/>
      <point x="403" y="456"/>
      <point x="413" y="469"/>
      <point x="447" y="469" type="curve" smooth="yes"/>
      <point x="553" y="469"/>
      <point x="611" y="392"/>
      <point x="611" y="252" type="curve" smooth="yes"/>
      <point x="611" y="92"/>
      <point x="554" y="31"/>
    </contour>
  </outline>
</glyph>
<glyph name="Decyr" format="2">
  <advance width="864"/>
  <unicode hex="0414"/>
  <outline>
    <contour>
      <point x="110" y="-140" type="line"/>
      <point x="110" y="-57"/>
      <point x="107" y="0"/>
      <point x="176" y="0" type="curve" smooth="yes"/>
      <point x="681" y="0" type="line" smooth="yes"/>
      <point x="762" y="0"/>
      <point x="754" y="-57"/>
      <point x="754" y="-140" type="curve"/>
      <point x="814" y="-140" type="line"/>
      <point x="814" y="42"/>
      <point x="782" y="53"/>
      <point x="682" y="53" type="curve"/>
      <point x="682" y="700" type="line"/>
      <point x="257" y="700" type="line"/>
      <point x="257" y="669" type="line" smooth="yes"/>
      <point x="257" y="199"/>
      <point x="243" y="128"/>
      <point x="178" y="55" type="curve"/>
      <point x="89" y="55"/>
      <point x="50" y="42"/>
      <point x="50" y="-140" type="curve"/>
    </contour>
    <contour>
      <point x="229" y="54" type="line"/>
      <point x="305.01" y="126.11"/>
      <point x="316.44" y="197.27"/>
      <point x="316.97" y="646" type="curve"/>
      <point x="622" y="646" type="line"/>
      <point x="622" y="54" type="line"/>
    </contour>
  </outline>
</glyph>
<glyph name="Elcyr" format="2">
  <advance width="760"/>
  <unicode hex="041B"/>
  <outline>
    <contour>
      <point x="49" y="9" type="line"/>
      <point x="88" y="-14"/>
      <point x="107" y="-20"/>
      <point x="130" y="-20" type="curve" smooth="yes"/>
      <point x="245" y="-20"/>
      <point x="270" y="131"/>
      <point x="270" y="646" type="curve"/>
      <point x="593" y="646" type="line"/>
      <point x="593" y="0" type="line"/>
      <point x="653" y="0" type="line"/>
      <point x="653" y="700" type="line"/>
      <point x="210" y="700" type="line"/>
      <point x="210" y="175"/>
      <point x="196" y="33"/>
      <point x="136" y="33" type="curve" smooth="yes"/>
      <point x="120" y="33"/>
      <point x="99" y="43"/>
      <point x="67" y="61" type="curve"/>
    </contour>
  </outline>
</glyph>
<glyph name="Shacyr" format="2">
  <advance width="970"/>
  <unicode hex="0428"/>
  <outline>
    <contour>
      <point x="107" y="0" type="line"/>
      <point x="863" y="0" type="line"/>
      <point x="863" y="700" type="line"/>
      <point x="803" y="700" type="line"/>
      <point x="803" y="54" type="line"/>
      <point x="515" y="54" type="line"/>
      <point x="515" y="700" type="line"/>
      <point x="455" y="700" type="line"/>
      <point x="455" y="54" type="line"/>
      <point x="167" y="54" type="line"/>
      <point x="167" y="700" type="line"/>
      <point x="107" y="700" type="line"/>
    </contour>
  </outline>
</glyph>
<glyph name="decyr" format="2">
  <advance width="780"/>
  <unicode hex="0434"/>
  <anchor x="409" y="-20" name="bottom"/>
  <anchor x="410" y="520" name="top"/>
  <outline>
    <contour>
      <point x="120" y="-140" type="line"/>
      <point x="120" y="-67"/>
      <point x="117" y="0"/>
      <point x="176" y="0" type="curve" smooth="yes"/>
      <point x="596" y="0" type="line" smooth="yes"/>
      <point x="667" y="0"/>
      <point x="659" y="-62"/>
      <point x="659" y="-140" type="curve"/>
      <point x="715" y="-140" type="line"/>
      <point x="715" y="17"/>
      <point x="695" y="49"/>
      <point x="594" y="49" type="curve"/>
      <point x="594" y="500" type="line"/>
      <point x="235" y="500" type="line"/>
      <point x="235" y="307" type="line" smooth="yes"/>
      <point x="235" y="164"/>
      <point x="223" y="82"/>
      <point x="198" y="51" type="curve"/>
      <point x="98" y="51"/>
      <point x="64" y="23"/>
      <point x="64" y="-140" type="curve"/>
    </contour>
    <contour>
      <point x="218" y="50" type="line"/>
      <point x="276" y="78"/>
      <point x="295" y="198"/>
      <point x="295" y="450" type="curve"/>
      <point x="534" y="450" type="line"/>
      <point x="534" y="50" type="line"/>
    </contour>
  </outline>
</glyph>
<glyph name="shacyr" format="2">
  <advance width="879"/>
  <unicode hex="0448"/>
  <outline>
    <contour>
      <point x="100" y="0" type="line"/>
      <point x="779" y="0" type="line"/>
      <point x="779" y="500" type="line"/>
      <point x="719" y="500" type="line"/>
      <point x="719" y="50" type="line"/>
      <point x="470" y="50" type="line"/>
      <point x="470" y="500" type="line"/>
      <point x="410" y="500" type="line"/>
      <point x="410" y="50" type="line"/>
      <point x="160" y="50" type="line"/>
      <point x="160" y="500" type="line"/>
      <point x="100" y="500" type="line"/>
    </contour>
  </outline>
</glyph>
<glyph name="hardcyr" format="2">
  <advance width="600"/>
  <unicode hex="044A"/>
  <outline>
    <contour>
      <point x="21" y="450" type="line"/>
      <point x="179" y="450" type="line"/>
      <point x="212" y="498" type="line"/>
      <point x="212" y="500" type="line"/>
      <point x="21" y="500" type="line"/>
    </contour>
    <contour>
      <point x="164" y="0" type="line"/>
      <point x="359" y="0" type="line" smooth="yes"/>
      <point x="465" y="0"/>
      <point x="530" y="61"/>
      <point x="530" y="154" type="curve" smooth="yes"/>
      <point x="530" y="250"/>
      <point x="461" y="305"/>
      <point x="346" y="305" type="curve" smooth="yes"/>
      <point x="179" y="305" type="line"/>
      <point x="179" y="255" type="line"/>
      <point x="352" y="255" type="line" smooth="yes"/>
      <point x="424" y="255"/>
      <point x="470" y="217"/>
      <point x="470" y="152" type="curve" smooth="yes"/>
      <point x="470" y="88"/>
      <point x="425" y="50"/>
      <point x="345" y="50" type="curve" smooth="yes"/>
      <point x="224" y="50" type="line"/>
      <point x="224" y="500" type="line"/>
      <point x="164" y="500" type="line"/>
    </contour>
  </outline>
</glyph>
<glyph name="geupcyr" format="2">
  <advance width="510"/>
  <unicode hex="0491"/>
  <outline>
    <contour>
      <point x="100" y="0" type="line"/>
      <point x="160" y="0" type="line"/>
      <point x="160" y="450" type="line"/>
      <point x="311" y="450" type="line" smooth="yes"/>
      <point x="428" y="450"/>
      <point x="453" y="479"/>
      <point x="453" y="638" type="curve"/>
      <point x="398" y="638" type="line"/>
      <point x="398" y="601"/>
      <point x="406" y="500"/>
      <point x="352" y="500" type="curve" smooth="yes"/>
      <point x="100" y="500" type="line"/>
    </contour>
  </outline>
</glyph>
<glyph name="dagger" format="2">
  <advance width="701"/>
  <unicode hex="2020"/>
  <outline>
    <contour>
      <point x="342" y="-104" type="line"/>
      <point x="359" y="-104" type="line"/>
      <point x="370" y="426" type="line"/>
      <point x="650" y="413" type="line"/>
      <point x="650" y="458" type="line"/>
      <point x="371" y="445" type="line"/>
      <point x="378" y="696" type="line"/>
      <point x="323" y="696" type="line"/>
      <point x="330" y="444" type="line"/>
      <point x="50" y="458" type="line"/>
      <point x="50" y="413" type="line"/>
      <point x="331" y="426" type="line"/>
    </contour>
  </outline>
</glyph>
<glyph name="four.superior" format="2">
  <advance width="486"/>
  <unicode hex="2074"/>
  <outline>
    <contour>
      <point x="50" y="457" type="line"/>
      <point x="286" y="457" type="line"/>
      <point x="286" y="344" type="line"/>
      <point x="345" y="344" type="line"/>
      <point x="345" y="457" type="line"/>
      <point x="433" y="457" type="line"/>
      <point x="433" y="507" type="line"/>
      <point x="345" y="507" type="line"/>
      <point x="345" y="830" type="line"/>
      <point x="265" y="830" type="line"/>
      <point x="50" y="486" type="line"/>
    </contour>
    <contour>
      <point x="123" y="507" type="line"/>
      <point x="286" y="768" type="line"/>
      <point x="286" y="507" type="line"/>
    </contour>
  </outline>
</glyph>
<glyph name="seven.superior" format="2">
  <advance width="417"/>
  <unicode hex="2077"/>
  <outline>
    <contour>
      <point x="99" y="346" type="line"/>
      <point x="302" y="781" type="line"/>
      <point x="50" y="781" type="line"/>
      <point x="50" y="832" type="line"/>
      <point x="386" y="832" type="line"/>
      <point x="386" y="823" type="line"/>
      <point x="164" y="346" type="line"/>
    </contour>
  </outline>
</glyph>
<glyph name="C.ss09" format="2">
  <advance width="773"/>
  <anchor x="407" y="-19" name="bottom"/>
  <anchor x="387" y="719" name="top"/>
  <outline>
    <contour>
      <point x="640" y="261" type="line"/>
      <point x="620" y="120"/>
      <point x="530" y="35"/>
      <point x="401" y="35" type="curve" smooth="yes"/>
      <point x="241" y="35"/>
      <point x="133" y="164"/>
      <point x="133" y="354" type="curve" smooth="yes"/>
      <point x="133" y="541"/>
      <point x="237" y="665"/>
      <point x="395" y="665" type="curve" smooth="yes"/>
      <point x="507" y="665"/>
      <point x="590" y="602"/>
      <point x="630" y="485" type="curve"/>
      <point x="690" y="485" type="line"/>
      <point x="645" y="638"/>
      <point x="544" y="720"/>
      <point x="399" y="720" type="curve" smooth="yes"/>
      <point x="205" y="720"/>
      <point x="73" y="572"/>
      <point x="73" y="355" type="curve" smooth="yes"/>
      <point x="73" y="135"/>
      <point x="208" y="-20"/>
      <point x="400" y="-20" type="curve" smooth="yes"/>
      <point x="558" y="-20"/>
      <point x="669" y="84"/>
      <point x="700" y="261" type="curve"/>
    </contour>
  </outline>
</glyph>
<glyph name="C.ss10" format="2">
  <advance width="735"/>
  <anchor x="407" y="-19" name="bottom"/>
  <anchor x="387" y="719" name="top"/>
  <outline>
    <contour>
      <point x="639" y="163" type="line"/>
      <point x="579.205" y="71.7337"/>
      <point x="512.625" y="35"/>
      <point x="407" y="35" type="curve" smooth="yes"/>
      <point x="242" y="35"/>
      <point x="133" y="162"/>
      <point x="133" y="356" type="curve" smooth="yes"/>
      <point x="133" y="545"/>
      <point x="236" y="665"/>
      <point x="398" y="665" type="curve" smooth="yes"/>
      <point x="499.781" y="665"/>
      <point x="572.902" y="624.658"/>
      <point x="630" y="537" type="curve"/>
      <point x="653" y="603" type="line"/>
      <point x="585" y="682"/>
      <point x="498" y="720"/>
      <point x="398" y="720" type="curve" smooth="yes"/>
      <point x="203" y="720"/>
      <point x="73" y="575"/>
      <point x="73" y="357" type="curve" smooth="yes"/>
      <point x="73" y="134"/>
      <point x="208" y="-20"/>
      <point x="405" y="-20" type="curve" smooth="yes"/>
      <point x="507" y="-20"/>
      <point x="594" y="18"/>
      <point x="662" y="97" type="curve"/>
    </contour>
  </outline>
</glyph>
<glyph name="C.ss12" format="2">
  <advance width="669"/>
  <anchor x="377" y="-19" name="bottom"/>
  <anchor x="357" y="719" name="top"/>
  <outline>
    <contour>
      <point x="589.307" y="130.222" type="line"/>
      <point x="537.029" y="69.4877"/>
      <point x="453.701" y="35.2224"/>
      <point x="370" y="35.2224" type="curve" smooth="yes"/>
      <point x="220.198" y="35.2224"/>
      <point x="133" y="151.404"/>
      <point x="133" y="351" type="curve" smooth="yes"/>
      <point x="133" y="554.628"/>
      <point x="212.791" y="665"/>
      <point x="360" y="665" type="curve" smooth="yes"/>
      <point x="443.701" y="665"/>
      <point x="532.347" y="627.855"/>
      <point x="584.625" y="567.12" type="curve"/>
      <point x="590.685" y="615.699" type="line"/>
      <point x="550.238" y="677.014"/>
      <point x="457.142" y="720"/>
      <point x="359" y="720" type="curve" smooth="yes"/>
      <point x="170" y="720"/>
      <point x="73" y="576"/>
      <point x="73" y="349" type="curve" smooth="yes"/>
      <point x="73" y="122"/>
      <point x="180" y="-19.7776"/>
      <point x="369" y="-19.7776" type="curve" smooth="yes"/>
      <point x="457.142" y="-19.7776"/>
      <point x="554.861" y="19.9073"/>
      <point x="595.307" y="81.2224" type="curve"/>
    </contour>
  </outline>
</glyph>
<glyph name="Ccedilla.ss09" format="2">
  <advance width="773"/>
  <anchor x="387" y="719" name="top"/>
  <anchor x="387" y="-217" name="bottom"/>
  <outline>
    <contour>
      <point x="640" y="261" type="line"/>
      <point x="620" y="120"/>
      <point x="530" y="35"/>
      <point x="401" y="35" type="curve" smooth="yes"/>
      <point x="241" y="35"/>
      <point x="133" y="164"/>
      <point x="133" y="354" type="curve" smooth="yes"/>
      <point x="133" y="541"/>
      <point x="237" y="665"/>
      <point x="395" y="665" type="curve" smooth="yes"/>
      <point x="507" y="665"/>
      <point x="590" y="602"/>
      <point x="630" y="485" type="curve"/>
      <point x="690" y="485" type="line"/>
      <point x="645" y="638"/>
      <point x="544" y="720"/>
      <point x="399" y="720" type="curve" smooth="yes"/>
      <point x="205" y="720"/>
      <point x="73" y="572"/>
      <point x="73" y="355" type="curve" smooth="yes"/>
      <point x="73" y="135"/>
      <point x="208" y="-20"/>
      <point x="400" y="-20" type="curve" smooth="yes"/>
      <point x="558" y="-20"/>
      <point x="669" y="84"/>
      <point x="700" y="261" type="curve"/>
    </contour>
    <contour>
      <point x="296" y="-204" type="line"/>
      <point x="316" y="-210"/>
      <point x="339" y="-217"/>
      <point x="377" y="-217" type="curve" smooth="yes"/>
      <point x="455" y="-217"/>
      <point x="496" y="-187"/>
      <point x="496" y="-139" type="curve" smooth="yes"/>
      <point x="496" y="-91"/>
      <point x="456" y="-63"/>
      <point x="398" y="-63" type="curve"/>
      <point x="438.194" y="13.1373" type="line"/>
      <point x="393.194" y="13.1373" type="line"/>
      <point x="343" y="-81" type="line"/>
      <point x="355" y="-78"/>
      <point x="365" y="-77"/>
      <point x="375" y="-77" type="curve" smooth="yes"/>
      <point x="420" y="-77"/>
      <point x="444" y="-97"/>
      <point x="444" y="-131" type="curve" smooth="yes"/>
      <point x="444" y="-165"/>
      <point x="419" y="-187"/>
      <point x="374" y="-187" type="curve" smooth="yes"/>
      <point x="353" y="-187"/>
      <point x="329" y="-182"/>
      <point x="311" y="-176" type="curve"/>
    </contour>
  </outline>
</glyph>
<glyph name="Ccedilla.ss10" format="2">
  <advance width="735"/>
  <anchor x="387" y="719" name="top"/>
  <anchor x="387" y="-217" name="bottom"/>
  <outline>
    <contour>
      <point x="639" y="163" type="line"/>
      <point x="579.205" y="71.7337"/>
      <point x="512.625" y="35"/>
      <point x="407" y="35" type="curve" smooth="yes"/>
      <point x="242" y="35"/>
      <point x="133" y="162"/>
      <point x="133" y="356" type="curve" smooth="yes"/>
      <point x="133" y="545"/>
      <point x="236" y="665"/>
      <point x="398" y="665" type="curve" smooth="yes"/>
      <point x="499.781" y="665"/>
      <point x="572.902" y="624.658"/>
      <point x="630" y="537" type="curve"/>
      <point x="653" y="603" type="line"/>
      <point x="585" y="682"/>
      <point x="498" y="720"/>
      <point x="398" y="720" type="curve" smooth="yes"/>
      <point x="203" y="720"/>
      <point x="73" y="575"/>
      <point x="73" y="357" type="curve" smooth="yes"/>
      <point x="73" y="134"/>
      <point x="208" y="-20"/>
      <point x="405" y="-20" type="curve" smooth="yes"/>
      <point x="507" y="-20"/>
      <point x="594" y="18"/>
      <point x="662" y="97" type="curve"/>
    </contour>
    <contour>
      <point x="296" y="-204" type="line"/>
      <point x="316" y="-210"/>
      <point x="339" y="-217"/>
      <point x="377" y="-217" type="curve" smooth="yes"/>
      <point x="455" y="-217"/>
      <point x="496" y="-187"/>
      <point x="496" y="-139" type="curve" smooth="yes"/>
      <point x="496" y="-91"/>
      <point x="456" y="-63"/>
      <point x="398" y="-63" type="curve"/>
      <point x="438.194" y="13.1373" type="line"/>
      <point x="393.194" y="13.1373" type="line"/>
      <point x="343" y="-81" type="line"/>
      <point x="355" y="-78"/>
      <point x="365" y="-77"/>
      <point x="375" y="-77" type="curve" smooth="yes"/>
      <point x="420" y="-77"/>
      <point x="444" y="-97"/>
      <point x="444" y="-131" type="curve" smooth="yes"/>
      <point x="444" y="-165"/>
      <point x="419" y="-187"/>
      <point x="374" y="-187" type="curve" smooth="yes"/>
      <point x="353" y="-187"/>
      <point x="329" y="-182"/>
      <point x="311" y="-176" type="curve"/>
    </contour>
  </outline>
</glyph>
<glyph name="Ereversedcyr.ss10" format="2">
  <advance width="735"/>
  <anchor x="357" y="719" name="top"/>
  <outline>
    <contour>
      <point x="73" y="97" type="line"/>
      <point x="141" y="18"/>
      <point x="228" y="-20"/>
      <point x="330" y="-20" type="curve" smooth="yes"/>
      <point x="527" y="-20"/>
      <point x="662" y="134"/>
      <point x="662" y="357" type="curve" smooth="yes"/>
      <point x="662" y="575"/>
      <point x="532" y="720"/>
      <point x="337" y="720" type="curve" smooth="yes"/>
      <point x="237" y="720"/>
      <point x="150" y="682"/>
      <point x="82" y="603" type="curve"/>
      <point x="105" y="537" type="line"/>
      <point x="162.098" y="624.658"/>
      <point x="235.219" y="665"/>
      <point x="337" y="665" type="curve" smooth="yes"/>
      <point x="499" y="665"/>
      <point x="602" y="545"/>
      <point x="602" y="356" type="curve" smooth="yes"/>
      <point x="602" y="162"/>
      <point x="493" y="35"/>
      <point x="328" y="35" type="curve" smooth="yes"/>
      <point x="222.375" y="35"/>
      <point x="155.795" y="71.7337"/>
      <point x="96" y="163" type="curve"/>
    </contour>
    <contour>
      <point x="260" y="349" type="line"/>
      <point x="611" y="349" type="line"/>
      <point x="611" y="399" type="line"/>
      <point x="260" y="399" type="line"/>
    </contour>
  </outline>
</glyph>
<glyph name="G.ss13" format="2">
  <advance width="783"/>
  <anchor x="392" y="-19" name="bottom"/>
  <anchor x="392" y="719" name="top"/>
  <outline>
    <contour>
      <point x="380" y="309" type="line" name="dv05"/>
      <point x="649" y="309" type="line" name="sv02"/>
      <point x="649" y="119"/>
      <point x="526" y="35"/>
      <point x="395" y="35" type="curve" smooth="yes" name="dv04"/>
      <point x="246" y="35"/>
      <point x="133" y="145"/>
      <point x="133" y="352" type="curve" smooth="yes" name="dv07"/>
      <point x="133" y="550"/>
      <point x="237" y="665"/>
      <point x="388" y="665" type="curve" smooth="yes"/>
      <point x="510" y="665"/>
      <point x="593" y="602"/>
      <point x="633" y="485" type="curve"/>
      <point x="693" y="485" type="line"/>
      <point x="648" y="638"/>
      <point x="547" y="720"/>
      <point x="388" y="720" type="curve" smooth="yes"/>
      <point x="180" y="720"/>
      <point x="73" y="561"/>
      <point x="73" y="359" type="curve" smooth="yes" name="dv08"/>
      <point x="73" y="132"/>
      <point x="207" y="-20"/>
      <point x="399" y="-20" type="curve" smooth="yes" name="dv03"/>
      <point x="582" y="-20"/>
      <point x="710" y="117"/>
      <point x="710" y="316" type="curve" smooth="yes" name="sv03"/>
      <point x="710" y="359" type="line" name="sv01"/>
      <point x="380" y="359" type="line" name="dv06"/>
    </contour>
  </outline>
</glyph>
<glyph name="G.ss15" format="2">
  <advance width="767"/>
  <anchor x="393" y="-19" name="bottom"/>
  <anchor x="393" y="719" name="top"/>
  <outline>
    <contour>
      <point x="380" y="309" type="line" name="dv05"/>
      <point x="648" y="309" type="line" name="sv02"/>
      <point x="632.568" y="330.238" type="line"/>
      <point x="640.782" y="125.246"/>
      <point x="530.783" y="35"/>
      <point x="395" y="35" type="curve" smooth="yes" name="dv04"/>
      <point x="246" y="35"/>
      <point x="133" y="145"/>
      <point x="133" y="351" type="curve" smooth="yes" name="dv07"/>
      <point x="133" y="550"/>
      <point x="238" y="665"/>
      <point x="395" y="665" type="curve" smooth="yes"/>
      <point x="488" y="665"/>
      <point x="581" y="625"/>
      <point x="651" y="546" type="curve"/>
      <point x="657" y="595" type="line"/>
      <point x="605.291" y="670.672"/>
      <point x="503.715" y="720"/>
      <point x="395" y="720" type="curve" smooth="yes"/>
      <point x="183" y="720"/>
      <point x="73" y="561"/>
      <point x="73" y="356" type="curve" smooth="yes" name="dv08"/>
      <point x="73" y="132"/>
      <point x="207" y="-20"/>
      <point x="399" y="-20" type="curve" smooth="yes" name="dv03"/>
      <point x="582" y="-20"/>
      <point x="694" y="117"/>
      <point x="694" y="316" type="curve" smooth="yes" name="sv03"/>
      <point x="694" y="359" type="line" name="sv01"/>
      <point x="380" y="359" type="line" name="dv06"/>
    </contour>
  </outline>
</glyph>
<glyph name="J.ss07" format="2">
  <advance width="400"/>
  <anchor x="174" y="-69" name="bottom"/>
  <anchor x="274" y="719" name="top"/>
  <outline>
    <contour>
      <point x="20" y="-124" type="line"/>
      <point x="227" y="-124"/>
      <point x="301" y="-48"/>
      <point x="301" y="162" type="curve" smooth="yes"/>
      <point x="301" y="700" type="line"/>
      <point x="241" y="700" type="line"/>
      <point x="241" y="162" type="line" smooth="yes"/>
      <point x="241" y="-22"/>
      <point x="190" y="-70"/>
      <point x="20" y="-70" type="curve"/>
    </contour>
  </outline>
</glyph>
<glyph name="Schwa.ss09" format="2">
  <advance width="779"/>
  <anchor x="390" y="719" name="top"/>
  <anchor x="390" y="-20" name="bottom"/>
  <outline>
    <contour>
      <point x="77" y="382" type="line" name="sh04"/>
      <point x="75" y="367"/>
      <point x="73" y="362"/>
      <point x="73" y="347" type="curve" smooth="yes" name="sh01"/>
      <point x="73" y="125"/>
      <point x="199" y="-20"/>
      <point x="390" y="-20" type="curve" smooth="yes" name="dv01"/>
      <point x="581" y="-20"/>
      <point x="706" y="121"/>
      <point x="706" y="350" type="curve" smooth="yes" name="sh03"/>
      <point x="706" y="573"/>
      <point x="596" y="720"/>
      <point x="395" y="720" type="curve" smooth="yes" name="dv04"/>
      <point x="230" y="720"/>
      <point x="137" y="637"/>
      <point x="89" y="485" type="curve"/>
      <point x="150" y="485" type="line"/>
      <point x="185" y="604"/>
      <point x="275" y="665"/>
      <point x="391" y="665" type="curve" smooth="yes" name="dv03"/>
      <point x="562" y="665"/>
      <point x="645" y="561"/>
      <point x="645" y="350" type="curve" smooth="yes"/>
      <point x="645" y="153"/>
      <point x="549" y="35"/>
      <point x="390" y="35" type="curve" smooth="yes" name="dv02"/>
      <point x="242" y="35"/>
      <point x="134" y="144"/>
      <point x="134" y="331" type="curve" name="sh02"/>
      <point x="659" y="331" type="line" name="dv05"/>
      <point x="658" y="382" type="line" name="dv06"/>
    </contour>
  </outline>
</glyph>
<glyph name="Schwa.ss12" format="2">
  <advance width="779"/>
  <anchor x="390" y="719" name="top"/>
  <anchor x="390" y="-20" name="bottom"/>
  <outline>
    <contour>
      <point x="77" y="385" type="line" name="sh04"/>
      <point x="75" y="370"/>
      <point x="73" y="350"/>
      <point x="73" y="335" type="curve" smooth="yes" name="sh01"/>
      <point x="73" y="122"/>
      <point x="199.8" y="-20"/>
      <point x="390" y="-20" type="curve" smooth="yes" name="dv01"/>
      <point x="581" y="-20"/>
      <point x="706" y="121"/>
      <point x="706" y="350" type="curve" smooth="yes" name="sh03"/>
      <point x="706" y="563"/>
      <point x="580" y="720"/>
      <point x="391" y="720" type="curve" smooth="yes"/>
      <point x="291" y="720"/>
      <point x="201" y="680"/>
      <point x="127" y="595" type="curve"/>
      <point x="133" y="546" type="line"/>
      <point x="203" y="625"/>
      <point x="296" y="665"/>
      <point x="385" y="665" type="curve" smooth="yes"/>
      <point x="536" y="665"/>
      <point x="646" y="555"/>
      <point x="646" y="344" type="curve" smooth="yes"/>
      <point x="646" y="156"/>
      <point x="546" y="35"/>
      <point x="391" y="35" type="curve" smooth="yes" name="dv02"/>
      <point x="236.2" y="35"/>
      <point x="133" y="155"/>
      <point x="133" y="335" type="curve" name="sh02"/>
      <point x="651" y="335" type="line" name="dv05"/>
      <point x="650" y="385" type="line" name="dv06"/>
    </contour>
  </outline>
</glyph>
<glyph name="a.ss09" format="2">
  <advance width="570"/>
  <anchor x="290" y="520" name="top"/>
  <anchor x="466" y="-3" name="ogonek"/>
  <anchor x="285" y="-20" name="bottom"/>
  <outline>
    <contour>
      <point x="406" y="157.03" type="curve"/>
      <point x="386" y="220.34"/>
      <point x="318.52" y="252"/>
      <point x="251" y="252" type="curve" smooth="yes"/>
      <point x="171" y="252"/>
      <point x="120" y="207"/>
      <point x="120" y="140" type="curve" smooth="yes"/>
      <point x="120" y="77"/>
      <point x="165" y="30"/>
      <point x="239" y="30" type="curve" smooth="yes"/>
      <point x="312" y="30"/>
      <point x="396" y="76"/>
    </contour>
    <contour>
      <point x="406" y="0" type="line"/>
      <point x="406" y="93.81" type="line"/>
      <point x="381" y="31.36"/>
      <point x="313.17" y="-20"/>
      <point x="230" y="-20" type="curve" smooth="yes"/>
      <point x="134" y="-20"/>
      <point x="60" y="49"/>
      <point x="60" y="146" type="curve" smooth="yes"/>
      <point x="60" y="243"/>
      <point x="134" y="302"/>
      <point x="236" y="302" type="curve" smooth="yes"/>
      <point x="317.72" y="302"/>
      <point x="382.12" y="264.07"/>
      <point x="406" y="200.94" type="curve"/>
      <point x="406" y="359" type="line" smooth="yes"/>
      <point x="406" y="442"/>
      <point x="350" y="469"/>
      <point x="285" y="469" type="curve" smooth="yes"/>
      <point x="195" y="469"/>
      <point x="148" y="417"/>
      <point x="142" y="341" type="curve"/>
      <point x="81" y="341" type="line"/>
      <point x="91" y="456"/>
      <point x="166" y="520"/>
      <point x="286" y="520" type="curve" smooth="yes"/>
      <point x="417" y="520"/>
      <point x="466" y="444"/>
      <point x="466" y="352" type="curve" smooth="yes"/>
      <point x="466" y="0" type="line"/>
    </contour>
  </outline>
</glyph>
<glyph name="aogonek.ss02" format="2">
  <advance width="580"/>
  <anchor x="287" y="520" name="top"/>
  <anchor x="280" y="-20" name="bottom"/>
  <outline>
    <contour>
      <point x="427" y="130" type="line"/>
      <point x="409" y="45"/>
      <point x="345" y="-20"/>
      <point x="243" y="-20" type="curve" smooth="yes"/>
      <point x="140" y="-20"/>
      <point x="70" y="47"/>
      <point x="70" y="144" type="curve" smooth="yes"/>
      <point x="70" y="244"/>
      <point x="144" y="308"/>
      <point x="247" y="308" type="curve" smooth="yes"/>
      <point x="347" y="308"/>
      <point x="420" y="247"/>
      <point x="427" y="171" type="curve"/>
      <point x="426" y="134" type="line"/>
      <point x="423" y="209"/>
      <point x="359" y="258"/>
      <point x="270" y="258" type="curve" smooth="yes"/>
      <point x="183" y="258"/>
      <point x="130" y="212"/>
      <point x="130" y="142" type="curve" smooth="yes"/>
      <point x="130" y="72"/>
      <point x="183" y="30"/>
      <point x="264" y="30" type="curve" smooth="yes"/>
      <point x="357" y="30"/>
      <point x="416" y="86"/>
      <point x="416" y="177" type="curve"/>
    </contour>
    <contour>
      <point x="416" y="0" type="line"/>
      <point x="416" y="359" type="line" smooth="yes"/>
      <point x="416" y="425"/>
      <point x="370" y="469"/>
      <point x="284" y="469" type="curve" smooth="yes" name="sv01"/>
      <point x="227" y="469"/>
      <point x="176" y="450"/>
      <point x="130" y="394" type="curve"/>
      <point x="94" y="430" type="line"/>
      <point x="134" y="483"/>
      <point x="202" y="520"/>
      <point x="291" y="520" type="curve" smooth="yes" name="at01"/>
      <point x="419" y="520"/>
      <point x="476" y="444"/>
      <point x="476" y="352" type="curve" smooth="yes"/>
      <point x="476" y="0" type="line"/>
    </contour>
    <contour>
      <point x="441" y="-206" type="line"/>
      <point x="394" y="-196"/>
      <point x="355" y="-154"/>
      <point x="355" y="-108" type="curve" smooth="yes"/>
      <point x="355" y="-59"/>
      <point x="398" y="-12"/>
      <point x="458" y="3" type="curve"/>
      <point x="476" y="0" type="line"/>
      <point x="435" y="-22"/>
      <point x="410" y="-62"/>
      <point x="410" y="-103" type="curve" smooth="yes"/>
      <point x="410" y="-143"/>
      <point x="433" y="-171"/>
      <point x="477" y="-183" type="curve"/>
    </contour>
  </outline>
</glyph>
<glyph name="eogonek.ss09" format="2">
  <advance width="595"/>
  <anchor x="298" y="520" name="top"/>
  <anchor x="298" y="-20" name="bottom"/>
  <outline>
    <contour>
      <point x="462" y="298" type="line"/>
      <point x="462" y="401"/>
      <point x="399" y="470"/>
      <point x="301" y="470" type="curve" smooth="yes"/>
      <point x="201" y="470"/>
      <point x="129" y="398"/>
      <point x="129" y="298" type="curve"/>
    </contour>
    <contour>
      <point x="129" y="253" type="line"/>
      <point x="129" y="113"/>
      <point x="192" y="31"/>
      <point x="301" y="31" type="curve" smooth="yes"/>
      <point x="391" y="31"/>
      <point x="457" y="87"/>
      <point x="461" y="167" type="curve"/>
      <point x="522" y="167" type="line"/>
      <point x="512" y="62"/>
      <point x="431" y="-20"/>
      <point x="305" y="-20" type="curve" smooth="yes"/>
      <point x="155" y="-20"/>
      <point x="68" y="95"/>
      <point x="68" y="252" type="curve" smooth="yes"/>
      <point x="68" y="401"/>
      <point x="147" y="520"/>
      <point x="300" y="520" type="curve" smooth="yes"/>
      <point x="453" y="520"/>
      <point x="528" y="402"/>
      <point x="528" y="253" type="curve"/>
    </contour>
    <contour>
      <point x="369" y="-206" type="line"/>
      <point x="322" y="-196"/>
      <point x="283" y="-154"/>
      <point x="283" y="-108" type="curve" smooth="yes"/>
      <point x="283" y="-59"/>
      <point x="326" y="-12"/>
      <point x="386" y="3" type="curve"/>
      <point x="404" y="0" type="line"/>
      <point x="363" y="-22"/>
      <point x="338" y="-62"/>
      <point x="338" y="-103" type="curve" smooth="yes"/>
      <point x="338" y="-143"/>
      <point x="361" y="-171"/>
      <point x="405" y="-183" type="curve"/>
    </contour>
  </outline>
</glyph>
<glyph name="ereversedcyr.ss10" format="2">
  <advance width="585"/>
  <anchor x="293" y="520" name="top"/>
  <anchor x="293" y="-20" name="bottom"/>
  <outline>
    <contour>
      <point x="79" y="55" type="line"/>
      <point x="122" y="7"/>
      <point x="190" y="-20"/>
      <point x="267" y="-20" type="curve" smooth="yes"/>
      <point x="422" y="-20"/>
      <point x="506" y="89"/>
      <point x="506" y="253" type="curve" smooth="yes"/>
      <point x="506" y="421"/>
      <point x="417" y="520"/>
      <point x="268" y="520" type="curve" smooth="yes"/>
      <point x="190" y="520"/>
      <point x="122" y="493"/>
      <point x="79" y="445" type="curve"/>
      <point x="99" y="383" type="line"/>
      <point x="130" y="434"/>
      <point x="199" y="469"/>
      <point x="271" y="469" type="curve" smooth="yes"/>
      <point x="379" y="469"/>
      <point x="446" y="389"/>
      <point x="446" y="250" type="curve" smooth="yes"/>
      <point x="446" y="107"/>
      <point x="376" y="31"/>
      <point x="269" y="31" type="curve" smooth="yes"/>
      <point x="198" y="31"/>
      <point x="132" y="65"/>
      <point x="99" y="117" type="curve"/>
    </contour>
    <contour>
      <point x="220" y="229" type="line"/>
      <point x="494" y="229" type="line"/>
      <point x="494" y="275" type="line"/>
      <point x="220" y="275" type="line"/>
    </contour>
  </outline>
</glyph>
<glyph name="greaterequal.case" format="2">
  <advance width="567"/>
  <outline>
    <contour>
      <point x="41" y="128" type="line"/>
      <point x="500" y="361" type="line"/>
      <point x="500" y="409" type="line"/>
      <point x="41" y="632" type="line"/>
      <point x="41" y="612" type="line"/>
      <point x="452" y="385" type="line"/>
      <point x="41" y="148" type="line"/>
    </contour>
    <contour>
      <point x="40" y="81" type="line"/>
      <point x="506" y="81" type="line"/>
      <point x="506" y="113" type="line"/>
      <point x="40" y="113" type="line"/>
    </contour>
  </outline>
</glyph>
<glyph name="nine.osf.ss09" format="2">
  <advance width="650"/>
  <outline>
    <contour>
      <point x="133" y="322" type="curve" smooth="yes"/>
      <point x="133" y="196"/>
      <point x="206" y="145"/>
      <point x="308" y="145" type="curve" smooth="yes"/>
      <point x="429" y="145"/>
      <point x="516" y="218"/>
      <point x="516" y="326" type="curve" smooth="yes"/>
      <point x="516" y="424"/>
      <point x="445" y="514"/>
      <point x="315" y="514" type="curve" smooth="yes"/>
      <point x="200" y="514"/>
      <point x="133" y="443"/>
    </contour>
    <contour>
      <point x="148" y="47" type="line"/>
      <point x="162.733" y="-51"/>
      <point x="213" y="-116"/>
      <point x="316" y="-116" type="curve" smooth="yes"/>
      <point x="458" y="-116"/>
      <point x="541" y="8"/>
      <point x="541" y="238" type="curve"/>
      <point x="506" y="150"/>
      <point x="418" y="94"/>
      <point x="304" y="94" type="curve" smooth="yes"/>
      <point x="174" y="94"/>
      <point x="73" y="166"/>
      <point x="73" y="325" type="curve" smooth="yes"/>
      <point x="73" y="475"/>
      <point x="164" y="569"/>
      <point x="317" y="569" type="curve" smooth="yes"/>
      <point x="495" y="569"/>
      <point x="590" y="442"/>
      <point x="590" y="202" type="curve" smooth="yes"/>
      <point x="590" y="-37"/>
      <point x="486" y="-171"/>
      <point x="316" y="-171" type="curve" smooth="yes"/>
      <point x="179" y="-171"/>
      <point x="109.624" y="-84"/>
      <point x="88" y="47" type="curve"/>
    </contour>
  </outline>
</glyph>
<glyph name="shchacyr.loclBGR" format="2">
  <advance width="964"/>
  <outline>
    <contour>
      <point x="836" y="500" type="line" name="ab01"/>
      <point x="776" y="500" type="line" name="sh01"/>
      <point x="776" y="0" type="line" name="av01"/>
      <point x="836" y="0" type="line"/>
    </contour>
    <contour>
      <point x="498" y="500" type="line" name="ab01"/>
      <point x="438" y="500" type="line"/>
      <point x="438" y="186" type="line" smooth="yes"/>
      <point x="438" y="39"/>
      <point x="498" y="-20"/>
      <point x="585" y="-20" type="curve" smooth="yes" name="at01"/>
      <point x="690" y="-20"/>
      <point x="773" y="65"/>
      <point x="780" y="173" type="curve"/>
      <point x="779" y="223" type="line"/>
      <point x="776" y="263" type="line" name="iv01"/>
      <point x="776" y="117"/>
      <point x="715" y="31"/>
      <point x="607" y="31" type="curve" smooth="yes" name="sv01"/>
      <point x="536" y="31"/>
      <point x="498" y="69"/>
      <point x="498" y="193" type="curve" smooth="yes"/>
    </contour>
    <contour>
      <point x="161" y="500" type="line" name="ab01"/>
      <point x="101" y="500" type="line"/>
      <point x="101" y="186" type="line" smooth="yes"/>
      <point x="101" y="39"/>
      <point x="161" y="-20"/>
      <point x="248" y="-20" type="curve" smooth="yes" name="at01"/>
      <point x="353" y="-20"/>
      <point x="436" y="65"/>
      <point x="443" y="173" type="curve"/>
      <point x="442" y="223" type="line"/>
      <point x="438" y="263" type="line" name="iv01"/>
      <point x="438" y="117"/>
      <point x="377" y="31"/>
      <point x="270" y="31" type="curve" smooth="yes" name="sv01"/>
      <point x="199" y="31"/>
      <point x="161" y="69"/>
      <point x="161" y="193" type="curve" smooth="yes"/>
    </contour>
    <contour>
      <point x="928" y="-140" type="line"/>
      <point x="928" y="17"/>
      <point x="908" y="49"/>
      <point x="807" y="49" type="curve"/>
      <point x="807" y="0" type="line"/>
      <point x="875" y="0"/>
      <point x="873" y="-52"/>
      <point x="873" y="-140" type="curve"/>
    </contour>
  </outline>
</glyph>
<glyph name="sigmafinal.ss10" format="2">
  <advance width="595"/>
  <anchor x="297" y="519" name="topgr"/>
  <outline>
    <contour>
      <point x="503" y="-200" type="line"/>
      <point x="513" y="-185"/>
      <point x="534" y="-151"/>
      <point x="534" y="-102" type="curve" smooth="yes"/>
      <point x="534" y="20"/>
      <point x="405.09" y="31"/>
      <point x="348.248" y="31" type="curve" smooth="yes"/>
      <point x="200.053" y="31"/>
      <point x="129" y="107"/>
      <point x="129" y="250" type="curve" smooth="yes"/>
      <point x="129" y="389"/>
      <point x="197.159" y="469"/>
      <point x="307.026" y="469" type="curve" smooth="yes"/>
      <point x="380.271" y="469"/>
      <point x="450.464" y="434"/>
      <point x="482" y="383" type="curve"/>
      <point x="502" y="445" type="line"/>
      <point x="458.396" y="493"/>
      <point x="389.44" y="520"/>
      <point x="310.344" y="520" type="curve" smooth="yes"/>
      <point x="159.251" y="520"/>
      <point x="69" y="421"/>
      <point x="69" y="253" type="curve" smooth="yes"/>
      <point x="69" y="89"/>
      <point x="154.819" y="-20"/>
      <point x="352" y="-20" type="curve" smooth="yes"/>
      <point x="378" y="-20"/>
      <point x="474" y="-18"/>
      <point x="474" y="-108" type="curve" smooth="yes"/>
      <point x="474" y="-142"/>
      <point x="460" y="-178"/>
      <point x="443" y="-200" type="curve"/>
    </contour>
  </outline>
</glyph>
<glyph name="six.ss10" format="2">
  <advance width="667"/>
  <outline>
    <contour>
      <point x="147" y="221" type="curve" smooth="yes"/>
      <point x="147" y="120"/>
      <point x="218" y="35"/>
      <point x="349" y="35" type="curve" smooth="yes"/>
      <point x="477" y="35"/>
      <point x="530" y="116"/>
      <point x="530" y="220" type="curve" smooth="yes"/>
      <point x="530" y="339"/>
      <point x="460" y="401"/>
      <point x="347" y="401" type="curve" smooth="yes"/>
      <point x="221" y="401"/>
      <point x="147" y="324"/>
    </contour>
    <contour>
      <point x="571" y="537" type="line"/>
      <point x="500" y="646"/>
      <point x="421" y="665"/>
      <point x="350" y="665" type="curve" smooth="yes"/>
      <point x="194" y="665"/>
      <point x="127" y="541"/>
      <point x="127" y="310.99" type="curve"/>
      <point x="159" y="402.99"/>
      <point x="236" y="453"/>
      <point x="346" y="453" type="curve" smooth="yes"/>
      <point x="491" y="453"/>
      <point x="590" y="367"/>
      <point x="590" y="218" type="curve" smooth="yes"/>
      <point x="590" y="90"/>
      <point x="516" y="-20"/>
      <point x="347" y="-20" type="curve" smooth="yes"/>
      <point x="174.74" y="-20"/>
      <point x="73.08" y="113.76"/>
      <point x="73.01" y="338.35" type="curve" smooth="yes"/>
      <point x="72.9546" y="516.137"/>
      <point x="132.474" y="720"/>
      <point x="348" y="720" type="curve" smooth="yes"/>
      <point x="440" y="720"/>
      <point x="526" y="682"/>
      <point x="594" y="603" type="curve"/>
    </contour>
  </outline>
</glyph>
<glyph name="u.ss05" format="2">
  <advance width="600"/>
  <anchor x="300" y="-20" name="bottom"/>
  <anchor x="497" y="-3" name="ogonek"/>
  <anchor x="300" y="520" name="top"/>
  <outline>
    <contour>
      <point x="443" y="203" type="line"/>
      <point x="437" y="263" type="line"/>
      <point x="437" y="107"/>
      <point x="386" y="30"/>
      <point x="284" y="30" type="curve" smooth="yes"/>
      <point x="198" y="30"/>
      <point x="156" y="84"/>
      <point x="156" y="180" type="curve" smooth="yes"/>
      <point x="156" y="500" type="line"/>
      <point x="96" y="500" type="line"/>
      <point x="96" y="196" type="line" smooth="yes"/>
      <point x="96" y="51"/>
      <point x="157" y="-20"/>
      <point x="263" y="-20" type="curve" smooth="yes"/>
      <point x="358" y="-20"/>
      <point x="416" y="38"/>
      <point x="443" y="130" type="curve"/>
    </contour>
    <contour>
      <point x="437" y="0" type="line" name="ab01"/>
      <point x="497" y="0" type="line"/>
      <point x="497" y="500" type="line"/>
      <point x="437" y="500" type="line" name="av01"/>
    </contour>
  </outline>
</glyph>
<glyph name="zecyr.loclBGR" format="2">
  <advance width="515"/>
  <outline>
    <contour>
      <point x="49.9764" y="-130" type="curve"/>
      <point x="85.9764" y="-94" type="line"/>
      <point x="131.347" y="-150"/>
      <point x="190.49" y="-169"/>
      <point x="251.149" y="-169" type="curve" smooth="yes" name="sv01"/>
      <point x="347.137" y="-169"/>
      <point x="395" y="-124.423"/>
      <point x="395" y="-20.5385" type="curve" smooth="yes"/>
      <point x="395" y="90.0081"/>
      <point x="324.72" y="144.237"/>
      <point x="185" y="133" type="curve"/>
      <point x="185" y="178" type="line"/>
      <point x="317.218" y="184.532"/>
      <point x="378" y="231.698"/>
      <point x="378" y="327.128" type="curve" smooth="yes"/>
      <point x="378" y="421.938"/>
      <point x="335.002" y="469"/>
      <point x="253.929" y="469" type="curve" smooth="yes" name="sv01"/>
      <point x="194.84" y="469"/>
      <point x="145.372" y="444"/>
      <point x="101" y="394" type="curve"/>
      <point x="65" y="430" type="line"/>
      <point x="105" y="483"/>
      <point x="171.016" y="520"/>
      <point x="254.162" y="520" type="curve" smooth="yes"/>
      <point x="367.899" y="520"/>
      <point x="437.77" y="446.253"/>
      <point x="437.77" y="326.207" type="curve" smooth="yes"/>
      <point x="437.77" y="235.511"/>
      <point x="365.979" y="160.793"/>
      <point x="278.986" y="160.793" type="curve"/>
      <point x="368.009" y="160.793"/>
      <point x="457.77" y="95.0147"/>
      <point x="457.77" y="-21.284" type="curve" smooth="yes"/>
      <point x="457.77" y="-128.506"/>
      <point x="384.023" y="-220"/>
      <point x="254.441" y="-220" type="curve" smooth="yes"/>
      <point x="157.126" y="-220"/>
      <point x="93.3653" y="-183"/>
    </contour>
  </outline>
</glyph>
